<svg width="261" height="36" viewBox="0 0 261 36" fill="none" xmlns="http://www.w3.org/2000/svg">
<g clip-path="url(#clip0_2_120)">
<path d="M105.32 0.0131836L98.5038 7.03097L91.7007 0.0131836H81.0063V7.03097H95.0016V35.129H102.019V7.03097H116.015V0.0131836H105.32Z" fill="#FF4E00"/>
<path d="M27.6686 28.0979H11.4458C9.11104 28.0979 7.12512 26.2999 7.01778 23.9651C7.01778 23.898 7.01778 23.8175 7.01778 23.7504V0H0V24.7434L10.3992 35.1157H34.6998V0.0134181H27.682V28.0979H27.6686Z" fill="#FF4E00"/>
<path d="M47.7692 23.9783C47.7692 23.9112 47.7692 23.8307 47.7692 23.7636V21.0666H75.3707V14.0488H47.7692V7.03097H75.3707V0.0131836H47.7692H40.7514V24.77L51.1506 35.129H53.9014H54.0892H75.3707V28.1112H52.1972C49.8624 28.1112 47.8765 26.3131 47.7692 23.9783Z" fill="#FF4E00"/>
<path d="M133.472 14.5052C132.667 14.5052 131.956 14.3308 131.338 13.9953C130.721 13.6598 130.252 13.2036 129.889 12.6401C129.54 12.0765 129.272 11.4458 129.098 10.7749C128.923 10.104 128.829 9.37943 128.829 8.61459C128.829 7.59479 128.977 6.65551 129.285 5.79674C129.581 4.93797 130.104 4.21338 130.829 3.62297C131.553 3.03257 132.439 2.73736 133.485 2.73736C134.505 2.73736 135.35 3.00573 136.048 3.54246C136.746 4.0792 137.175 4.8172 137.377 5.75649H140.114C139.859 4.02552 139.121 2.69711 137.887 1.77125C136.652 0.845383 135.203 0.38916 133.539 0.38916C131.996 0.38916 130.654 0.764872 129.5 1.52972C128.346 2.28114 127.487 3.2741 126.924 4.50858C126.347 5.74307 126.065 7.09832 126.065 8.60117C126.065 11.0835 126.736 13.0829 128.078 14.5857C129.42 16.0886 131.191 16.84 133.418 16.84C135.377 16.84 136.961 16.263 138.195 15.109C139.43 13.955 140.114 12.4119 140.262 10.4797H137.497C137.149 13.1634 135.807 14.5052 133.472 14.5052Z" fill="black"/>
<path d="M148.165 4.75C146.394 4.75 144.985 5.30015 143.938 6.38704C142.892 7.47392 142.355 8.93651 142.355 10.7748C142.355 12.6265 142.878 14.1026 143.925 15.1894C144.971 16.2763 146.38 16.8265 148.165 16.8265C149.909 16.8265 151.305 16.2763 152.325 15.1894C153.344 14.1026 153.854 12.6265 153.854 10.7748C153.854 8.93651 153.344 7.47392 152.311 6.38704C151.278 5.30015 149.896 4.75 148.165 4.75ZM150.473 13.7671C149.909 14.4917 149.131 14.854 148.152 14.854C147.132 14.854 146.34 14.4917 145.763 13.7671C145.186 13.0425 144.904 12.0496 144.904 10.7614C144.904 9.5135 145.186 8.52055 145.763 7.80938C146.34 7.08479 147.118 6.72249 148.125 6.72249C149.131 6.72249 149.909 7.08479 150.473 7.79596C151.037 8.50713 151.318 9.48667 151.318 10.748C151.318 12.0361 151.037 13.0425 150.473 13.7671Z" fill="black"/>
<path d="M162.657 4.77686C161.047 4.77686 159.799 5.43435 158.886 6.76277V5.08548H156.498V16.4776H159.007V10.3454C159.007 8.03751 159.933 6.88353 161.785 6.88353C162.268 6.88353 162.67 6.96404 162.979 7.11164C163.287 7.27266 163.516 7.50077 163.65 7.8094C163.784 8.11802 163.878 8.42664 163.932 8.72184C163.972 9.01704 163.999 9.40618 163.999 9.8624V16.4776H166.508V8.88286C166.508 7.55445 166.186 6.54808 165.542 5.8369C164.924 5.12573 163.958 4.77686 162.657 4.77686Z" fill="black"/>
<path d="M178.155 10.8824C177.913 10.6677 177.551 10.4665 177.068 10.2652C176.572 10.0639 176.196 9.92972 175.941 9.86263C175.686 9.79554 175.27 9.70161 174.693 9.56742C174.559 9.54059 174.371 9.50033 174.116 9.44666C173.861 9.39299 173.687 9.35273 173.579 9.3259C173.472 9.29906 173.324 9.2588 173.123 9.20513C172.935 9.15146 172.801 9.1112 172.721 9.07095C172.64 9.03069 172.533 8.99044 172.398 8.92335C172.264 8.86967 172.17 8.80258 172.117 8.74891C172.063 8.69523 172.009 8.62814 171.956 8.54763C171.889 8.46712 171.835 8.35978 171.808 8.25243C171.781 8.1585 171.781 8.03774 171.781 7.90355C171.781 7.48759 171.956 7.16555 172.305 6.93743C172.653 6.69591 173.163 6.58856 173.807 6.58856C175.31 6.58856 176.129 7.19238 176.276 8.40003H178.678C178.678 7.17896 178.235 6.26652 177.35 5.6627C176.464 5.05887 175.31 4.76367 173.915 4.76367C172.452 4.76367 171.312 5.07229 170.493 5.67611C169.675 6.29335 169.259 7.12529 169.259 8.19876C169.259 9.36615 169.782 10.1981 170.829 10.6946C171.271 10.9093 172.305 11.2179 173.915 11.6204C173.955 11.6339 174.009 11.6473 174.049 11.6473C174.089 11.6607 174.129 11.6607 174.156 11.6741C174.183 11.6875 174.223 11.6875 174.29 11.701C174.666 11.7949 174.975 11.862 175.203 11.9291C175.431 11.9962 175.673 12.0901 175.914 12.2109C176.169 12.3316 176.343 12.4926 176.451 12.6671C176.558 12.8415 176.612 13.0562 176.612 13.3112C176.612 13.8076 176.384 14.2102 175.941 14.5188C175.498 14.814 174.894 14.975 174.17 14.975C172.466 14.975 171.54 14.2639 171.406 12.8281H169.004C169.057 14.1163 169.527 15.1092 170.399 15.7801C171.271 16.451 172.506 16.7999 174.129 16.7999C175.646 16.7999 176.853 16.4645 177.752 15.7801C178.651 15.1092 179.094 14.1968 179.094 13.0428C179.094 12.5597 179 12.1303 178.799 11.7546C178.598 11.3789 178.383 11.0971 178.155 10.8824Z" fill="black"/>
<path d="M184.878 1.66406H182.368V5.08573H180.476V6.91062H182.368V12.345C182.368 12.3853 182.368 12.439 182.368 12.4926C182.368 12.5463 182.368 12.5866 182.368 12.6268C182.368 12.6671 182.368 12.7073 182.368 12.7744C182.368 13.2306 182.368 13.5527 182.368 13.7405C182.368 13.9284 182.382 14.1968 182.422 14.5456C182.462 14.8945 182.516 15.1495 182.596 15.2836C182.677 15.4178 182.798 15.6057 182.932 15.8069C183.079 16.0216 183.267 16.1692 183.482 16.2632C183.697 16.3571 183.978 16.4242 184.314 16.4913C184.649 16.5584 185.025 16.5852 185.468 16.5852C186.099 16.5852 187.024 16.5584 187.521 16.4913V14.5054C187.266 14.5322 186.582 14.5456 186.166 14.5456C185.844 14.5456 185.589 14.5188 185.401 14.4517C185.213 14.398 185.092 14.2773 185.012 14.1162C184.931 13.9418 184.891 13.7942 184.878 13.6466C184.864 13.5124 184.851 13.2575 184.851 12.9086V6.91062H187.669V5.08573H184.851V1.66406H184.878Z" fill="black"/>
<path d="M191.613 7.35336V5.08567H189.252V16.4779H191.748V11.4594C191.748 8.61468 192.848 7.20576 195.035 7.20576C195.183 7.20576 195.478 7.2326 195.921 7.27285V4.87097L195.438 4.83072C193.693 4.8173 192.419 5.66265 191.613 7.35336Z" fill="black"/>
<path d="M205.22 11.1106C205.22 12.1438 205.005 12.9891 204.562 13.66C204.119 14.3309 203.435 14.6664 202.482 14.6664C202.066 14.6664 201.717 14.6127 201.436 14.492C201.154 14.3712 200.926 14.237 200.778 14.076C200.617 13.915 200.51 13.6869 200.429 13.3783C200.349 13.083 200.295 12.8013 200.282 12.5597C200.268 12.3182 200.255 11.9962 200.255 11.5936V5.08569H197.746V12.6268C197.746 13.9687 198.081 14.9884 198.752 15.6996C199.423 16.4108 200.376 16.7731 201.637 16.7731C203.18 16.7731 204.428 16.1022 205.394 14.7603V16.4645H207.756V5.07227H205.247V11.1106H205.22Z" fill="black"/>
<path d="M217.86 14.1028C217.377 14.5457 216.773 14.7738 216.021 14.7738C215.069 14.7738 214.317 14.4249 213.781 13.7137C213.244 13.0025 212.975 12.023 212.975 10.7617C212.975 9.50033 213.257 8.49395 213.807 7.76936C214.371 7.04477 215.136 6.68248 216.102 6.68248C216.773 6.68248 217.336 6.87034 217.779 7.25947C218.222 7.6486 218.517 8.19875 218.665 8.90992H221.161C221.013 7.59493 220.49 6.57513 219.604 5.83713C218.718 5.09912 217.538 4.73682 216.088 4.73682C214.358 4.73682 212.975 5.28698 211.956 6.4007C210.936 7.51442 210.426 9.00385 210.426 10.8959C210.426 12.6403 210.936 14.0626 211.942 15.1495C212.949 16.2364 214.317 16.7731 216.021 16.7731C217.444 16.7731 218.638 16.3571 219.577 15.5252C220.517 14.6933 221.08 13.5795 221.255 12.184H218.786C218.638 13.0025 218.343 13.6466 217.86 14.1028Z" fill="black"/>
<path d="M226.957 1.31494H224.448V5.07207H222.556V6.89696H224.448V12.3313C224.448 12.3716 224.448 12.4253 224.448 12.4789C224.448 12.5326 224.448 12.5729 224.448 12.6131C224.448 12.6534 224.448 12.6936 224.448 12.7607C224.448 13.2169 224.448 13.539 224.448 13.7268C224.448 13.9147 224.462 14.1831 224.502 14.5319C224.542 14.8808 224.596 15.1358 224.676 15.2699C224.757 15.4041 224.878 15.592 225.012 15.7933C225.159 16.008 225.347 16.1556 225.562 16.2495C225.777 16.3434 226.058 16.4105 226.394 16.4776C226.729 16.5447 227.105 16.5715 227.548 16.5715C228.178 16.5715 228.742 16.5447 229.252 16.4776V14.4917C228.997 14.5185 228.675 14.5319 228.259 14.5319C227.937 14.5319 227.682 14.5051 227.494 14.438C227.306 14.3843 227.185 14.2636 227.105 14.1026C227.024 13.9281 226.984 13.7805 226.971 13.6329C226.957 13.4987 226.944 13.2438 226.944 12.8949V6.89696H229.762V5.07207H226.944V1.31494H226.957Z" fill="black"/>
<path d="M234.123 4.56201H231.613V16.4775H234.123V4.56201Z" fill="black"/>
<path d="M242.657 4.75C240.886 4.75 239.477 5.30015 238.43 6.38704C237.383 7.47392 236.847 8.93651 236.847 10.7748C236.847 12.6265 237.37 14.1026 238.417 15.1894C239.463 16.2763 240.872 16.8265 242.657 16.8265C244.401 16.8265 245.797 16.2763 246.816 15.1894C247.836 14.1026 248.346 12.6265 248.346 10.7748C248.346 8.93651 247.836 7.47392 246.803 6.38704C245.77 5.30015 244.388 4.75 242.657 4.75ZM244.951 13.7671C244.388 14.4917 243.609 14.854 242.63 14.854C241.61 14.854 240.818 14.4917 240.241 13.7671C239.664 13.0425 239.383 12.0496 239.383 10.7614C239.383 9.5135 239.664 8.52055 240.241 7.80938C240.818 7.08479 241.597 6.72249 242.603 6.72249C243.609 6.72249 244.388 7.08479 244.951 7.79596C245.515 8.50713 245.797 9.48667 245.797 10.748C245.81 12.0361 245.528 13.0425 244.951 13.7671Z" fill="black"/>
<path d="M260.047 5.8369C259.403 5.12573 258.437 4.77686 257.149 4.77686C255.538 4.77686 254.29 5.43435 253.378 6.76277V5.08548H250.99V16.4776H253.499V10.3454C253.499 8.03751 254.425 6.88353 256.276 6.88353C256.759 6.88353 257.162 6.96404 257.471 7.11164C257.779 7.27266 258.007 7.50077 258.142 7.8094C258.276 8.11802 258.37 8.42664 258.423 8.72184C258.464 9.01704 258.49 9.40618 258.49 9.8624V16.4776H261V8.88286C261.013 7.55445 260.691 6.54808 260.047 5.8369Z" fill="black"/>
<path d="M232.875 3.12624C233.734 3.12624 234.431 2.42936 234.431 1.56971C234.431 0.710064 233.734 0.0131836 232.875 0.0131836C232.015 0.0131836 231.318 0.710064 231.318 1.56971C231.318 2.42936 232.015 3.12624 232.875 3.12624Z" fill="black"/>
</g>
<defs>
<clipPath id="clip0_2_120">
<rect width="261" height="36" fill="white"/>
</clipPath>
</defs>
</svg>
